<svg xmlns="http://www.w3.org/2000/svg" xmlns:xlink="http://www.w3.org/1999/xlink" width="15.04" height="38.68" viewBox="0 0 15.04 38.68">
  <defs>
    <rect id="rect-1" width="15.04" height="38.68" x="0" y="0"/>
    <mask id="mask-2" maskContentUnits="userSpaceOnUse" maskUnits="userSpaceOnUse">
      <rect width="15.04" height="38.68" x="0" y="0" fill="black"/>
      <use fill="white" xlink:href="#rect-1"/>
    </mask>
  </defs>
  <g>
    <use fill="none" xlink:href="#rect-1"/>
    <g mask="url(#mask-2)">
      <path fill="rgb(255,255,255)" fill-rule="evenodd" d="M7.22127119 38.67697276c-.28976695-.22906083-.60741526-.4288584-.8653178-.68920066-1.98455508-1.99494835-3.95616525-4.00301472-5.93474576-6.00300846-.36544492-.37033183-.51978814-.796163-.35648305-1.30372952.1271508-.43595745.49611845-.75486196.94099576-.81331733.43913135-.07668997.79661017.09586246 1.1052966.4096859L6.0940678 34.313717c.05277542.05348117.10754237.10090787.23699152.22906085v-.49142127s0-16.3117552-.00497881-32.62653762c0-.5792111.15832627-1.0454054.6970339-1.30675676.34832876-.16262857.75270762-.14483817 1.08581771.04776987.3331101.19260805.55396864.53633703.59303822.92296372.00979598.15047556.01212236.30135497.00697034.4520672V34.5306689c.1523517-.14328916.2509322-.23006991.34254237-.32391422 0 0 1.95069915-1.97577585 3.90040254-3.9515517.3554873-.36024106.77271187-.49848482 1.25864407-.33804133.42974704.12793216.74522012.49978623.80557203.94954294.07354366.37975128-.04923535.77127753-.3256144 1.03834186 0 0-3.1725 3.22097881-6.35396187 6.43186684-.14438559.14530732-.34752118.23006992-.52277542.34308672l-.59247881-.00302724z"/>
    </g>
  </g>
</svg>
